<?xml version="1.0" encoding="UTF-8" standalone="no"?>
<!-- Created with Inkscape (http://www.inkscape.org/) -->

<svg
   xmlns:dc="http://purl.org/dc/elements/1.1/"
   xmlns:cc="http://creativecommons.org/ns#"
   xmlns:rdf="http://www.w3.org/1999/02/22-rdf-syntax-ns#"
   xmlns:svg="http://www.w3.org/2000/svg"
   xmlns="http://www.w3.org/2000/svg"
   xmlns:sodipodi="http://sodipodi.sourceforge.net/DTD/sodipodi-0.dtd"
   xmlns:inkscape="http://www.inkscape.org/namespaces/inkscape"
   width="32"
   height="32"
   id="svg6044"
   version="1.1"
   inkscape:version="0.48.1 r9760"
   sodipodi:docname="android.svg"
   style="display:inline">
  <defs
     id="defs6046" />
  <sodipodi:namedview
     id="base"
     pagecolor="#ffffff"
     bordercolor="#666666"
     borderopacity="1.0"
     inkscape:pageopacity="0.0"
     inkscape:pageshadow="2"
     inkscape:zoom="16"
     inkscape:cx="12.289226"
     inkscape:cy="13.069014"
     inkscape:current-layer="layer1"
     showgrid="true"
     inkscape:document-units="px"
     inkscape:grid-bbox="true"
     inkscape:window-width="1680"
     inkscape:window-height="997"
     inkscape:window-x="0"
     inkscape:window-y="0"
     inkscape:window-maximized="1"
     fit-margin-top="0"
     fit-margin-left="0"
     fit-margin-right="0"
     fit-margin-bottom="0"
     borderlayer="true"
     inkscape:snap-global="false"
     showguides="true"
     inkscape:guide-bbox="true"
     inkscape:object-paths="true"
     inkscape:snap-smooth-nodes="true"
     inkscape:object-nodes="true"
     inkscape:snap-intersection-paths="true"
     inkscape:snap-grids="false"
     inkscape:snap-page="true" />
  <metadata
     id="metadata6049">
    <rdf:RDF>
      <cc:Work
         rdf:about="">
        <dc:format>image/svg+xml</dc:format>
        <dc:type
           rdf:resource="http://purl.org/dc/dcmitype/StillImage" />
        <dc:title />
      </cc:Work>
    </rdf:RDF>
  </metadata>
  <g
     id="layer1"
     inkscape:label="Layer 1"
     inkscape:groupmode="layer"
     style="display:inline">
    <path
       style="fill:#000000"
       d="m 12.869016,29.464734 c -0.458928,-0.11587 -0.922771,-0.504592 -1.125301,-0.943057 L 11.61618,28.245575 11.593994,26.204437 11.571808,24.1633 10.750916,24.140843 C 9.9464783,24.118836 9.9241869,24.115625 9.6388616,23.980686 9.0963848,23.724131 8.7199099,23.222764 8.6234821,22.628464 8.573783,22.322161 8.5546775,11.736968 8.6035939,11.609495 c 0.024411,-0.06362 0.7224722,-0.07019 7.4545901,-0.07019 4.08521,0 7.428109,0.01497 7.428662,0.03328 5.55e-4,0.0183 0.0069,2.479317 0.01422,5.468918 0.01047,4.309151 0.0013,5.494156 -0.04412,5.718006 -0.106858,0.526373 -0.447877,0.950556 -0.971641,1.208597 l -0.306129,0.15082 -0.822055,0.02219 -0.822054,0.02219 -0.02219,2.041137 -0.02219,2.041138 -0.137931,0.288422 c -0.174677,0.365262 -0.448315,0.638576 -0.816079,0.815115 -0.257067,0.123401 -0.331836,0.138453 -0.687775,0.138453 -0.356641,0 -0.431267,-0.01509 -0.697748,-0.141135 -0.357905,-0.169282 -0.647848,-0.453325 -0.819452,-0.802779 l -0.124584,-0.253703 -0.01103,-1.974579 c -0.0061,-1.086019 -0.02142,-2.019506 -0.03412,-2.074417 l -0.0231,-0.09984 -1.085437,0 -1.085437,0 -0.0231,0.09984 c -0.0127,0.05491 -0.02806,0.988398 -0.03412,2.074417 l -0.01103,1.974579 -0.124585,0.253703 c -0.272946,0.555829 -0.80823,0.913585 -1.415423,0.945994 -0.178002,0.0095 -0.398829,-0.0017 -0.490726,-0.02491 z M 5.9216583,21.498953 C 5.413947,21.389635 5.0005616,21.051365 4.7677379,20.554708 l -0.1180492,-0.251821 0,-3.926971 0,-3.926972 0.1304385,-0.265669 c 0.1661446,-0.338393 0.4635583,-0.635807 0.8019514,-0.801952 0.2401909,-0.117928 0.3082238,-0.130438 0.7093948,-0.130438 0.401171,0 0.4692039,0.01251 0.7093947,0.130438 0.3389296,0.166408 0.6609351,0.488414 0.813109,0.813109 l 0.119281,0.254512 0,3.927895 0,3.927895 -0.1452807,0.295117 C 7.438307,21.310155 6.6989865,21.666323 5.9216583,21.498953 z m 19.5239257,0 c -0.507711,-0.109318 -0.921097,-0.447588 -1.15392,-0.944245 l -0.118049,-0.251821 0,-3.926971 0,-3.926972 0.130438,-0.265669 c 0.166145,-0.338393 0.463558,-0.635807 0.801951,-0.801952 0.240191,-0.117928 0.308224,-0.130438 0.709395,-0.130438 0.401171,0 0.469204,0.01251 0.709395,0.130438 0.338393,0.166145 0.635807,0.463559 0.801951,0.801952 l 0.130439,0.265669 0,3.927895 0,3.927895 -0.145281,0.295117 c -0.34967,0.710304 -1.088991,1.066472 -1.866319,0.899102 z M 8.5760873,10.850842 C 8.4516516,10.700906 8.6972381,9.3346791 8.9737493,8.6386024 9.5502252,7.1874094 10.70359,5.8727885 12.048286,5.1342037 12.19064,5.0560148 12.303134,4.9634567 12.303428,4.9242771 12.303718,4.8857347 12.054359,4.400093 11.749298,3.8450726 11.444237,3.2900527 11.194641,2.788879 11.194641,2.7313533 c 0,-0.1233675 0.107453,-0.2440486 0.217297,-0.2440486 0.128454,0 0.233782,0.1561446 0.778224,1.1536865 0.286375,0.5247055 0.546679,0.980989 0.578452,1.0139631 0.04834,0.050166 0.142734,0.030117 0.578227,-0.1228108 0.286252,-0.1005203 0.772726,-0.2367653 1.081056,-0.3027668 0.517917,-0.1108662 0.639987,-0.1200784 1.603353,-0.1209991 1.202511,-0.00115 1.669132,0.068177 2.573608,0.3823588 0.280657,0.09749 0.560204,0.1868368 0.621216,0.1985494 0.104214,0.020006 0.145257,-0.04163 0.677816,-1.0179331 0.311786,-0.5715756 0.606914,-1.0754548 0.655839,-1.1197315 0.07015,-0.063488 0.114461,-0.071589 0.209635,-0.038329 0.240475,0.084037 0.197573,0.2231224 -0.409522,1.3276556 -0.306309,0.5572887 -0.556283,1.044787 -0.5555,1.0833294 8.07e-4,0.039801 0.140912,0.1496704 0.324283,0.2543049 1.876255,1.0706193 3.174709,3.0314507 3.399171,5.133185 0.03922,0.367187 0.03904,0.495635 -7.36e-4,0.543564 -0.04452,0.05364 -1.130495,0.06276 -7.473624,0.06276 -6.5766576,0 -7.4278906,-0.0077 -7.4773487,-0.06725 z M 12.799496,8.2100393 c 0.0913,-0.025357 0.222792,-0.1135906 0.299515,-0.200973 0.331779,-0.3778763 0.05071,-0.995099 -0.453372,-0.9955947 -0.360569,-3.55e-4 -0.607456,0.2558127 -0.607753,0.6305989 -2.22e-4,0.3040864 0.232432,0.5491636 0.576677,0.6074172 0.0122,0.00206 0.09542,-0.016586 0.184933,-0.041448 z m 6.833374,0 c 0.0913,-0.025357 0.222792,-0.1135906 0.299515,-0.200973 0.331779,-0.3778763 0.05071,-0.995099 -0.453372,-0.9955947 -0.356767,-3.55e-4 -0.607451,0.2562236 -0.607753,0.6220332 -2.67e-4,0.3037337 0.238497,0.5587557 0.576677,0.6159829 0.0122,0.00206 0.09542,-0.016586 0.184933,-0.041448 z"
       id="path3048"
       inkscape:connector-curvature="0" />
  </g>
</svg>
